<?xml version="1.0" encoding="UTF-8"?> <svg xmlns="http://www.w3.org/2000/svg" xmlns:xlink="http://www.w3.org/1999/xlink" width="115pt" height="40pt" viewBox="0 0 115 40"><g id="surface1"><path style=" stroke:none;fill-rule:evenodd;fill:rgb(0%,0%,0%);fill-opacity:1;" d="M 8.664062 19.585938 C 8.644531 23.226562 11.304688 25.398438 15.546875 24.414062 L 15.546875 14.757812 C 11.25 13.441406 8.679688 16.101562 8.664062 19.585938 M 15.675781 0.796875 L 21.519531 0.796875 L 21.519531 28.585938 C 15.917969 29.507812 10.554688 30.089844 6.714844 27.933594 C 1.773438 25.160156 1.378906 16.335938 5.289062 12.40625 C 7.269531 10.417969 11.261719 9.011719 15.546875 9.929688 L 15.546875 1.1875 C 15.535156 1 15.523438 0.816406 15.675781 0.796875 "></path><path style=" stroke:none;fill-rule:evenodd;fill:rgb(0%,0%,0%);fill-opacity:1;" d="M 31 6.925781 L 25.15625 6.925781 L 25.15625 0.796875 L 31 0.796875 Z M 31 6.925781 "></path><path style=" stroke:none;fill-rule:evenodd;fill:rgb(0%,0%,0%);fill-opacity:1;" d="M 101.121094 24.671875 C 107.488281 27.160156 108.195312 13.214844 101.769531 14.496094 C 97.777344 15.289062 97.90625 23.417969 101.121094 24.671875 M 101.378906 9.667969 C 106.246094 9.144531 109.914062 11.300781 111.378906 14.625 C 113.875 20.296875 111.242188 26.804688 107.222656 28.71875 C 105.140625 29.710938 102.960938 29.804688 100.988281 29.632812 C 94.902344 29.097656 91.058594 22.863281 93.199219 15.929688 C 93.535156 14.847656 93.910156 14.183594 94.109375 13.84375 C 95.429688 11.582031 97.667969 10.066406 101.378906 9.667969 "></path><path style=" stroke:none;fill-rule:evenodd;fill:rgb(0%,0%,0%);fill-opacity:1;" d="M 39.050781 22.453125 C 37.433594 25.183594 41.496094 25.839844 44.113281 25.066406 L 44.113281 21.019531 C 42.101562 21.300781 39.808594 21.171875 39.050781 22.453125 M 49.308594 28.847656 C 44.480469 29.128906 37.144531 30.78125 34.503906 27.542969 C 32.953125 25.640625 33.121094 22.015625 34.503906 20.238281 C 36.292969 17.9375 40.199219 17.4375 43.722656 17.105469 C 44.042969 16.3125 43.828125 15.027344 43.464844 14.496094 C 40.242188 13.671875 37.039062 14.949219 34.765625 15.929688 L 34.765625 11.363281 C 38.199219 9.777344 46.148438 8.109375 48.527344 11.753906 C 49.777344 13.671875 49.308594 17.007812 49.308594 19.976562 Z M 49.308594 28.847656 "></path><path style=" stroke:none;fill-rule:evenodd;fill:rgb(0%,0%,0%);fill-opacity:1;" d="M 69.824219 29.109375 L 63.980469 29.109375 L 63.980469 21.542969 C 63.980469 19.050781 64.382812 15.890625 63.074219 14.886719 C 62.046875 14.101562 59.613281 14.496094 58.136719 14.886719 L 58.136719 29.109375 L 52.292969 29.109375 L 52.292969 10.972656 C 58.269531 9.414062 69.050781 7.742188 69.824219 15.277344 C 70.207031 18.996094 69.542969 24.570312 69.824219 29.109375 "></path><path style=" stroke:none;fill-rule:evenodd;fill:rgb(0%,0%,0%);fill-opacity:1;" d="M 78.523438 22.847656 C 79.507812 24.445312 82.171875 25.042969 84.367188 24.019531 C 84.246094 20.96875 84.207031 17.835938 84.238281 14.625 C 79.1875 13.285156 76.179688 19.03125 78.523438 22.847656 M 93.199219 10.449219 C 92.679688 12.015625 91.917969 13.339844 91.25 14.757812 C 90.648438 14.890625 90.125 14.515625 89.824219 14.757812 C 89.6875 21.117188 91.171875 29.738281 88.652344 34.328125 C 87.136719 37.09375 84.347656 38.863281 80.082031 39.15625 C 76.976562 39.371094 74.566406 38.859375 72.292969 37.984375 L 72.292969 32.503906 C 74.957031 34.066406 81.695312 35.339844 83.589844 32.109375 C 84.148438 31.160156 84.113281 30.179688 84.367188 28.71875 C 83.148438 28.78125 81.960938 29.351562 80.472656 29.371094 C 74.347656 29.453125 70.558594 24.550781 72.03125 17.757812 C 72.601562 15.128906 74.132812 13.011719 76.1875 11.753906 C 80.453125 9.144531 87.007812 9.34375 93.199219 10.449219 "></path><path style=" stroke:none;fill-rule:evenodd;fill:rgb(0%,0%,0%);fill-opacity:1;" d="M 31 10.03125 C 30.992188 14.355469 30.992188 17.464844 30.992188 22.714844 C 30.746094 27.878906 30.800781 31.988281 28.921875 34.460938 C 28.550781 34.945312 27.761719 35.65625 27.101562 36.15625 C 26.550781 36.574219 25.496094 37.421875 24.894531 37.460938 C 24.292969 37.496094 22.742188 36.617188 22.039062 36.285156 C 21.117188 35.851562 20.265625 35.269531 19.3125 34.980469 C 21.535156 33.597656 23.644531 32.558594 24.503906 29.761719 C 25.253906 27.328125 25.15625 23.804688 25.15625 20.367188 C 25.15625 16.972656 25.171875 13.03125 25.171875 10.035156 L 31 10.035156 Z M 31 10.03125 "></path></g></svg> 