<?xml version="1.0" encoding="UTF-8"?> <svg xmlns="http://www.w3.org/2000/svg" xmlns:xlink="http://www.w3.org/1999/xlink" width="40pt" height="40pt" viewBox="0 0 40 40"><defs><linearGradient id="linear0" gradientUnits="userSpaceOnUse" x1="55.549179" y1="77.070274" x2="110.14919" y2="131.85291" gradientTransform="matrix(0.363636,0,0,0.363636,-16.340909,-24.534091)"><stop offset="0" style="stop-color:rgb(21.960784%,49.411765%,72.156863%);stop-opacity:1;"></stop><stop offset="1" style="stop-color:rgb(21.176471%,41.176471%,58.039216%);stop-opacity:1;"></stop></linearGradient><linearGradient id="linear1" gradientUnits="userSpaceOnUse" x1="89.136749" y1="111.92053" x2="147.77737" y2="168.1012" gradientTransform="matrix(0.363636,0,0,0.363636,-16.340909,-24.534091)"><stop offset="0" style="stop-color:rgb(100%,87.843137%,32.156863%);stop-opacity:1;"></stop><stop offset="1" style="stop-color:rgb(100%,76.470588%,19.215686%);stop-opacity:1;"></stop></linearGradient></defs><g id="surface1"><path style=" stroke:none;fill-rule:nonzero;fill:url(#linear0);" d="M 19.933594 0 C 9.738281 0 10.375 4.421875 10.375 4.421875 L 10.386719 9 L 20.113281 9 L 20.113281 10.375 L 6.523438 10.375 C 6.523438 10.375 0 9.636719 0 19.921875 C 0 30.207031 5.691406 29.839844 5.691406 29.839844 L 9.089844 29.839844 L 9.089844 25.066406 C 9.089844 25.066406 8.90625 19.375 14.691406 19.375 C 20.480469 19.375 24.339844 19.375 24.339844 19.375 C 24.339844 19.375 29.761719 19.460938 29.761719 14.136719 C 29.761719 8.808594 29.761719 5.328125 29.761719 5.328125 C 29.761719 5.328125 30.585938 0 19.933594 0 Z M 14.566406 3.078125 C 15.535156 3.078125 16.316406 3.863281 16.316406 4.828125 C 16.316406 5.796875 15.535156 6.578125 14.566406 6.578125 C 13.601562 6.578125 12.816406 5.796875 12.816406 4.828125 C 12.816406 3.863281 13.601562 3.078125 14.566406 3.078125 Z M 14.566406 3.078125 "></path><path style=" stroke:none;fill-rule:nonzero;fill:url(#linear1);" d="M 20.222656 39.945312 C 30.414062 39.945312 29.777344 35.523438 29.777344 35.523438 L 29.765625 30.945312 L 20.039062 30.945312 L 20.039062 29.570312 L 33.628906 29.570312 C 33.628906 29.570312 40.152344 30.308594 40.152344 20.023438 C 40.152344 9.738281 34.460938 10.101562 34.460938 10.101562 L 31.0625 10.101562 L 31.0625 14.875 C 31.0625 14.875 31.246094 20.570312 25.460938 20.570312 C 19.675781 20.570312 15.8125 20.570312 15.8125 20.570312 C 15.8125 20.570312 10.390625 20.480469 10.390625 25.808594 C 10.390625 31.132812 10.390625 34.613281 10.390625 34.613281 C 10.390625 34.613281 9.570312 39.945312 20.222656 39.945312 Z M 25.585938 36.863281 C 24.617188 36.863281 23.835938 36.082031 23.835938 35.113281 C 23.835938 34.148438 24.617188 33.363281 25.585938 33.363281 C 26.554688 33.363281 27.335938 34.148438 27.335938 35.113281 C 27.335938 36.082031 26.554688 36.863281 25.585938 36.863281 Z M 25.585938 36.863281 "></path></g></svg> 