<?xml version="1.0" encoding="UTF-8"?> <svg xmlns="http://www.w3.org/2000/svg" width="24" height="21" viewBox="0 0 24 21" fill="none"><path d="M23.1602 10.1953C23.1602 8.67578 21.2383 7.24219 18.293 6.35156C18.9727 3.38281 18.6719 1.01953 17.3398 0.265625C17.0312 0.085937 16.6719 0.00390601 16.2812 0.00390601V1.04297C16.5 1.04297 16.6719 1.08594 16.8203 1.16797C17.4648 1.52734 17.7422 2.91406 17.5234 4.69531C17.4727 5.13672 17.3867 5.59766 17.2852 6.07031C16.3594 5.84375 15.3477 5.67188 14.2852 5.5625C13.6484 4.69531 12.9883 3.91406 12.3203 3.22656C13.8594 1.81641 15.3047 1.03906 16.2891 1.03906V0C14.9883 0 13.2891 0.914063 11.5703 2.5C9.85156 0.921875 8.15234 0.019531 6.85547 0.019531V1.05859C7.83203 1.05859 9.28125 1.82813 10.8203 3.23047C10.1602 3.91797 9.5 4.69531 8.87109 5.5625C7.80078 5.67188 6.79297 5.84375 5.86719 6.07422C5.75781 5.60937 5.67969 5.15625 5.62109 4.72266C5.40234 2.9375 5.67578 1.55078 6.3125 1.18359C6.45312 1.10156 6.63672 1.0625 6.85547 1.0625V0.023437C6.45703 0.023437 6.09766 0.105469 5.78906 0.28125C4.46094 1.03906 4.16406 3.39453 4.84766 6.35547C1.91016 7.25 0 8.68359 0 10.1953C0 11.7109 1.92188 13.1484 4.86719 14.0391C4.1875 17.0078 4.48828 19.3711 5.82031 20.125C6.125 20.3008 6.48438 20.3867 6.88281 20.3867C8.17969 20.3867 9.87891 19.4727 11.6016 17.8867C13.3164 19.4609 15.0195 20.3672 16.3164 20.3672C16.7109 20.3672 17.0703 20.2812 17.3828 20.1055C18.707 19.3516 19.0078 16.9922 18.3242 14.0352C21.25 13.1445 23.1602 11.707 23.1602 10.1953ZM17.0117 7.08203C16.8398 7.68359 16.6211 8.30469 16.375 8.92578C16.1836 8.55078 15.9805 8.17969 15.7578 7.80469C15.543 7.42969 15.3125 7.07031 15.0781 6.71484C15.75 6.8125 16.3945 6.93359 17.0117 7.08203ZM14.8516 12.0508C14.4844 12.6797 14.1055 13.2813 13.7148 13.832C13.0117 13.8945 12.2969 13.9258 11.5781 13.9258C10.8672 13.9258 10.1563 13.8945 9.45703 13.8398C9.0625 13.2852 8.67969 12.6914 8.3125 12.0664C7.95312 11.4531 7.62891 10.8359 7.33203 10.2109C7.62109 9.58594 7.95312 8.95703 8.30859 8.34766C8.67578 7.71875 9.05469 7.11719 9.44531 6.5625C10.1523 6.50391 10.8633 6.46875 11.5781 6.46875C12.293 6.46875 13.0039 6.50391 13.7031 6.55859C14.0977 7.11328 14.4805 7.70703 14.8477 8.33203C15.207 8.94531 15.5313 9.56641 15.832 10.1914C15.5313 10.8164 15.207 11.4414 14.8516 12.0508ZM16.375 11.4453C16.6328 12.0703 16.8477 12.6953 17.0273 13.3008C16.4102 13.4531 15.7578 13.5781 15.082 13.6758C15.3164 13.3164 15.5469 12.9492 15.7656 12.5703C15.9805 12.1953 16.1836 11.8203 16.375 11.4453ZM11.5898 16.4258C11.1484 15.9766 10.7109 15.4766 10.2773 14.9297C10.6992 14.9492 11.1367 14.9648 11.5742 14.9648C12.0195 14.9648 12.457 14.9531 12.8867 14.9297C12.4648 15.4766 12.0234 15.9766 11.5898 16.4258ZM8.07812 13.6758C7.40625 13.5781 6.75781 13.457 6.14062 13.3047C6.31641 12.7031 6.53125 12.0859 6.78125 11.4648C6.97266 11.8359 7.17578 12.2109 7.39453 12.582C7.61719 12.957 7.84375 13.3203 8.07812 13.6758ZM11.5664 3.96484C12.0078 4.41406 12.4453 4.91016 12.8789 5.45703C12.4531 5.4375 12.0195 5.42578 11.5781 5.42578C11.1367 5.42578 10.6953 5.43359 10.2695 5.45703C10.6914 4.91016 11.1328 4.41406 11.5664 3.96484ZM8.07422 6.71484C7.83984 7.07422 7.60938 7.44141 7.39062 7.82031C7.17578 8.19141 6.97266 8.56641 6.78125 8.94141C6.52344 8.31641 6.30469 7.69141 6.125 7.08203C6.74609 6.9375 7.39453 6.8125 8.07422 6.71484ZM3.79688 12.5547C2.12891 11.8516 1.04688 10.9258 1.04688 10.1953C1.04688 9.46094 2.12891 8.53516 3.79688 7.83203C4.20312 7.66016 4.64844 7.50781 5.10938 7.36328C5.375 8.27734 5.73047 9.22656 6.16797 10.2031C5.73437 11.1758 5.38672 12.1211 5.12109 13.0312C4.65234 12.8867 4.21094 12.7305 3.79688 12.5547ZM6.33984 19.2227C5.69922 18.8594 5.41797 17.4766 5.63672 15.6914C5.6875 15.2539 5.77344 14.7891 5.875 14.3203C6.80078 14.543 7.8125 14.7148 8.875 14.8281C9.51172 15.6914 10.1719 16.4727 10.8398 17.1602C9.30078 18.5742 7.85547 19.3516 6.87109 19.3516C6.66016 19.3437 6.48047 19.3008 6.33984 19.2227ZM17.5391 15.668C17.7617 17.4492 17.4844 18.8359 16.8477 19.2031C16.707 19.2891 16.5234 19.3242 16.3047 19.3242C15.3281 19.3242 13.8789 18.5547 12.3398 17.1523C13 16.4648 13.6602 15.6875 14.2891 14.8242C15.3594 14.7109 16.3672 14.5391 17.293 14.3125C17.4023 14.7812 17.4844 15.2344 17.5391 15.668ZM19.3555 12.5547C18.9492 12.7305 18.5078 12.8828 18.0469 13.0273C17.7773 12.1133 17.4258 11.1602 16.9883 10.1836C17.418 9.21484 17.7695 8.26562 18.0352 7.35938C18.5039 7.50391 18.9453 7.66016 19.3633 7.83203C21.0313 8.53906 22.1133 9.46094 22.1133 10.1953C22.1094 10.9258 21.0273 11.8555 19.3555 12.5547Z" fill="#61DAFB"></path><path d="M13.7344 10.1953C13.7344 11.3711 12.7656 12.3281 11.5742 12.3281C10.3828 12.3281 9.41797 11.3711 9.41797 10.1953C9.41797 9.01953 10.3828 8.0625 11.5742 8.0625C12.7656 8.0625 13.7344 9.01953 13.7344 10.1953Z" fill="#61DAFB"></path></svg> 